<mxfile host="Electron" agent="Mozilla/5.0 (Windows NT 10.0; Win64; x64) AppleWebKit/537.36 (KHTML, like Gecko) draw.io/24.7.17 Chrome/128.0.6613.36 Electron/32.0.1 Safari/537.36" version="24.7.17">
  <diagram name="Page-1" id="GLDq5bMen8jlPRQu5EKH">
    <mxGraphModel dx="2058" dy="820" grid="1" gridSize="10" guides="1" tooltips="1" connect="1" arrows="1" fold="1" page="1" pageScale="1" pageWidth="850" pageHeight="1100" math="0" shadow="0">
      <root>
        <mxCell id="0" />
        <mxCell id="1" parent="0" />
        <mxCell id="KMpIxaAEJdpiu075ooxI-1" value="{name}-vpc&lt;div&gt;172.16.0.0/28&lt;/div&gt;" style="points=[[0,0],[0.25,0],[0.5,0],[0.75,0],[1,0],[1,0.25],[1,0.5],[1,0.75],[1,1],[0.75,1],[0.5,1],[0.25,1],[0,1],[0,0.75],[0,0.5],[0,0.25]];outlineConnect=0;gradientColor=none;html=1;whiteSpace=wrap;fontSize=12;fontStyle=0;container=0;pointerEvents=0;collapsible=0;recursiveResize=0;shape=mxgraph.aws4.group;grIcon=mxgraph.aws4.group_vpc2;strokeColor=#8C4FFF;fillColor=none;verticalAlign=top;align=left;spacingLeft=30;fontColor=#AAB7B8;dashed=0;movable=1;resizable=1;rotatable=1;deletable=1;editable=1;locked=0;connectable=1;" parent="1" vertex="1">
          <mxGeometry x="90" y="111" width="570" height="429" as="geometry" />
        </mxCell>
        <mxCell id="KMpIxaAEJdpiu075ooxI-2" value="AWS Cloud" style="points=[[0,0],[0.25,0],[0.5,0],[0.75,0],[1,0],[1,0.25],[1,0.5],[1,0.75],[1,1],[0.75,1],[0.5,1],[0.25,1],[0,1],[0,0.75],[0,0.5],[0,0.25]];outlineConnect=0;gradientColor=none;html=1;whiteSpace=wrap;fontSize=12;fontStyle=0;container=1;pointerEvents=0;collapsible=0;recursiveResize=0;shape=mxgraph.aws4.group;grIcon=mxgraph.aws4.group_aws_cloud_alt;strokeColor=#232F3E;fillColor=none;verticalAlign=top;align=left;spacingLeft=30;fontColor=#232F3E;dashed=0;" parent="1" vertex="1">
          <mxGeometry x="30" y="31" width="670" height="649" as="geometry" />
        </mxCell>
        <mxCell id="KMpIxaAEJdpiu075ooxI-3" value="us-east-1" style="points=[[0,0],[0.25,0],[0.5,0],[0.75,0],[1,0],[1,0.25],[1,0.5],[1,0.75],[1,1],[0.75,1],[0.5,1],[0.25,1],[0,1],[0,0.75],[0,0.5],[0,0.25]];outlineConnect=0;gradientColor=none;html=1;whiteSpace=wrap;fontSize=12;fontStyle=0;container=0;pointerEvents=0;collapsible=0;recursiveResize=0;shape=mxgraph.aws4.group;grIcon=mxgraph.aws4.group_region;strokeColor=#00A4A6;fillColor=none;verticalAlign=top;align=left;spacingLeft=30;fontColor=#147EBA;dashed=1;movable=1;resizable=1;rotatable=1;deletable=1;editable=1;locked=0;connectable=1;" parent="KMpIxaAEJdpiu075ooxI-2" vertex="1">
          <mxGeometry x="35" y="34" width="615" height="496" as="geometry" />
        </mxCell>
        <mxCell id="KMpIxaAEJdpiu075ooxI-5" value="us-east-1a" style="rounded=1;arcSize=10;dashed=1;strokeColor=#F59D56;fillColor=none;gradientColor=none;dashPattern=8 4;strokeWidth=2;verticalAlign=top;" parent="KMpIxaAEJdpiu075ooxI-2" vertex="1">
          <mxGeometry x="75" y="204" width="402" height="296" as="geometry" />
        </mxCell>
        <mxCell id="KMpIxaAEJdpiu075ooxI-8" value="{name}-public-subnet&lt;div&gt;172.16.0.0/28&lt;/div&gt;" style="points=[[0,0],[0.25,0],[0.5,0],[0.75,0],[1,0],[1,0.25],[1,0.5],[1,0.75],[1,1],[0.75,1],[0.5,1],[0.25,1],[0,1],[0,0.75],[0,0.5],[0,0.25]];outlineConnect=0;gradientColor=none;html=1;whiteSpace=wrap;fontSize=12;fontStyle=0;container=1;pointerEvents=0;collapsible=0;recursiveResize=0;shape=mxgraph.aws4.group;grIcon=mxgraph.aws4.group_security_group;grStroke=0;strokeColor=#7AA116;fillColor=#F2F6E8;verticalAlign=top;align=left;spacingLeft=30;fontColor=#248814;dashed=0;movable=1;resizable=1;rotatable=1;deletable=1;editable=1;locked=0;connectable=1;" parent="KMpIxaAEJdpiu075ooxI-2" vertex="1">
          <mxGeometry x="95" y="250" width="370" height="234" as="geometry" />
        </mxCell>
        <mxCell id="-ffZ3iOy5KJ_YUymThu5-1" value="{name}-ecs-asg" style="rounded=1;arcSize=10;dashed=1;fillColor=none;gradientColor=none;dashPattern=8 3 1 3;strokeWidth=2;verticalAlign=bottom;" parent="KMpIxaAEJdpiu075ooxI-8" vertex="1">
          <mxGeometry x="30" y="40" width="310" height="180" as="geometry" />
        </mxCell>
        <mxCell id="KMpIxaAEJdpiu075ooxI-29" value="" style="group;verticalAlign=top;" parent="KMpIxaAEJdpiu075ooxI-8" vertex="1" connectable="0">
          <mxGeometry x="102.745" y="65" width="164.5" height="130" as="geometry" />
        </mxCell>
        <mxCell id="KMpIxaAEJdpiu075ooxI-30" value="{name}-ecs-cluster-sg" style="fillColor=none;strokeColor=#DD3522;verticalAlign=top;fontStyle=0;fontColor=#DD3522;whiteSpace=wrap;html=1;movable=1;resizable=1;rotatable=1;deletable=1;editable=1;locked=0;connectable=1;container=0;" parent="KMpIxaAEJdpiu075ooxI-29" vertex="1">
          <mxGeometry width="164.50000000000003" height="130" as="geometry" />
        </mxCell>
        <mxCell id="cy_Bf5KmIXIsXcCeZ6iI-3" value="" style="sketch=0;points=[[0,0,0],[0.25,0,0],[0.5,0,0],[0.75,0,0],[1,0,0],[0,1,0],[0.25,1,0],[0.5,1,0],[0.75,1,0],[1,1,0],[0,0.25,0],[0,0.5,0],[0,0.75,0],[1,0.25,0],[1,0.5,0],[1,0.75,0]];outlineConnect=0;fontColor=#232F3E;fillColor=#ED7100;strokeColor=#ffffff;dashed=0;verticalLabelPosition=bottom;verticalAlign=top;align=center;html=1;fontSize=12;fontStyle=0;aspect=fixed;shape=mxgraph.aws4.resourceIcon;resIcon=mxgraph.aws4.auto_scaling2;" parent="KMpIxaAEJdpiu075ooxI-29" vertex="1">
          <mxGeometry x="41.004999999999995" y="32" width="78" height="78" as="geometry" />
        </mxCell>
        <mxCell id="KMpIxaAEJdpiu075ooxI-11" value="{name}-ig" style="sketch=0;outlineConnect=0;fontColor=#232F3E;gradientColor=none;fillColor=#8C4FFF;strokeColor=none;dashed=0;verticalLabelPosition=bottom;verticalAlign=top;align=center;html=1;fontSize=12;fontStyle=0;aspect=fixed;pointerEvents=1;shape=mxgraph.aws4.internet_gateway;movable=1;resizable=1;rotatable=1;deletable=1;editable=1;locked=0;connectable=1;" parent="KMpIxaAEJdpiu075ooxI-2" vertex="1">
          <mxGeometry x="510" y="99" width="80" height="78" as="geometry" />
        </mxCell>
        <mxCell id="KMpIxaAEJdpiu075ooxI-12" value="{name}-public-route-table" style="sketch=0;outlineConnect=0;fontColor=#232F3E;gradientColor=none;fillColor=#8C4FFF;strokeColor=none;dashed=0;verticalLabelPosition=bottom;verticalAlign=top;align=center;html=1;fontSize=12;fontStyle=0;aspect=fixed;pointerEvents=1;shape=mxgraph.aws4.route_table;" parent="KMpIxaAEJdpiu075ooxI-2" vertex="1">
          <mxGeometry x="510" y="369" width="80" height="76" as="geometry" />
        </mxCell>
        <mxCell id="KMpIxaAEJdpiu075ooxI-13" value="{name}-public-nacl" style="sketch=0;outlineConnect=0;fontColor=#232F3E;gradientColor=none;fillColor=#8C4FFF;strokeColor=none;dashed=0;verticalLabelPosition=bottom;verticalAlign=top;align=center;html=1;fontSize=12;fontStyle=0;aspect=fixed;pointerEvents=1;shape=mxgraph.aws4.network_access_control_list;" parent="KMpIxaAEJdpiu075ooxI-2" vertex="1">
          <mxGeometry x="510" y="229" width="80" height="78" as="geometry" />
        </mxCell>
        <mxCell id="zRLwdJeCu3TSM6kLGqJt-1" value="Session Manager" style="sketch=0;outlineConnect=0;fontColor=#232F3E;gradientColor=none;fillColor=#E7157B;strokeColor=none;dashed=0;verticalLabelPosition=bottom;verticalAlign=top;align=center;html=1;fontSize=12;fontStyle=0;aspect=fixed;pointerEvents=1;shape=mxgraph.aws4.systems_manager_session_manager;spacingLeft=30;fontFamily=Helvetica;resizable=1;" parent="KMpIxaAEJdpiu075ooxI-2" vertex="1">
          <mxGeometry x="239" y="99" width="78" height="78" as="geometry" />
        </mxCell>
        <mxCell id="-ffZ3iOy5KJ_YUymThu5-3" style="edgeStyle=orthogonalEdgeStyle;rounded=0;orthogonalLoop=1;jettySize=auto;html=1;entryX=0.5;entryY=0;entryDx=0;entryDy=0;entryPerimeter=0;" parent="KMpIxaAEJdpiu075ooxI-2" source="zRLwdJeCu3TSM6kLGqJt-1" target="cy_Bf5KmIXIsXcCeZ6iI-3" edge="1">
          <mxGeometry relative="1" as="geometry">
            <mxPoint x="265.0141935483871" y="335" as="targetPoint" />
          </mxGeometry>
        </mxCell>
        <mxCell id="cJOK1PBZ7m1B89OkjaX0-1" value="{name}-job-schedule" style="sketch=0;outlineConnect=0;fontColor=#232F3E;gradientColor=none;fillColor=#E7157B;strokeColor=none;dashed=0;verticalLabelPosition=bottom;verticalAlign=top;align=center;html=1;fontSize=12;fontStyle=0;aspect=fixed;pointerEvents=1;shape=mxgraph.aws4.eventbridge_scheduler;" vertex="1" parent="KMpIxaAEJdpiu075ooxI-2">
          <mxGeometry x="530" y="539" width="78" height="78" as="geometry" />
        </mxCell>
        <mxCell id="cy_Bf5KmIXIsXcCeZ6iI-6" style="edgeStyle=orthogonalEdgeStyle;rounded=0;orthogonalLoop=1;jettySize=auto;html=1;exitX=1;exitY=0.5;exitDx=0;exitDy=0;exitPerimeter=0;" parent="1" source="cy_Bf5KmIXIsXcCeZ6iI-1" target="cy_Bf5KmIXIsXcCeZ6iI-5" edge="1">
          <mxGeometry relative="1" as="geometry" />
        </mxCell>
        <mxCell id="cy_Bf5KmIXIsXcCeZ6iI-9" style="edgeStyle=orthogonalEdgeStyle;rounded=0;orthogonalLoop=1;jettySize=auto;html=1;exitX=0;exitY=0.5;exitDx=0;exitDy=0;exitPerimeter=0;" parent="1" source="cy_Bf5KmIXIsXcCeZ6iI-1" target="cy_Bf5KmIXIsXcCeZ6iI-7" edge="1">
          <mxGeometry relative="1" as="geometry" />
        </mxCell>
        <mxCell id="cy_Bf5KmIXIsXcCeZ6iI-10" style="edgeStyle=orthogonalEdgeStyle;rounded=0;orthogonalLoop=1;jettySize=auto;html=1;exitX=0.5;exitY=1;exitDx=0;exitDy=0;exitPerimeter=0;" parent="1" source="cy_Bf5KmIXIsXcCeZ6iI-1" target="cy_Bf5KmIXIsXcCeZ6iI-11" edge="1">
          <mxGeometry relative="1" as="geometry">
            <mxPoint x="310" y="860" as="targetPoint" />
          </mxGeometry>
        </mxCell>
        <mxCell id="cy_Bf5KmIXIsXcCeZ6iI-1" value="{name}-ecs-cluster" style="sketch=0;points=[[0,0,0],[0.25,0,0],[0.5,0,0],[0.75,0,0],[1,0,0],[0,1,0],[0.25,1,0],[0.5,1,0],[0.75,1,0],[1,1,0],[0,0.25,0],[0,0.5,0],[0,0.75,0],[1,0.25,0],[1,0.5,0],[1,0.75,0]];outlineConnect=0;fontColor=#232F3E;fillColor=#ED7100;strokeColor=#ffffff;dashed=0;verticalLabelPosition=bottom;verticalAlign=top;align=center;html=1;fontSize=12;fontStyle=0;aspect=fixed;shape=mxgraph.aws4.resourceIcon;resIcon=mxgraph.aws4.ecs;" parent="1" vertex="1">
          <mxGeometry x="271" y="710" width="78" height="78" as="geometry" />
        </mxCell>
        <mxCell id="cy_Bf5KmIXIsXcCeZ6iI-2" style="edgeStyle=orthogonalEdgeStyle;rounded=0;orthogonalLoop=1;jettySize=auto;html=1;exitX=0.5;exitY=1;exitDx=0;exitDy=0;" parent="1" source="-ffZ3iOy5KJ_YUymThu5-1" target="cy_Bf5KmIXIsXcCeZ6iI-1" edge="1">
          <mxGeometry relative="1" as="geometry" />
        </mxCell>
        <mxCell id="cy_Bf5KmIXIsXcCeZ6iI-5" value="{name}-backend-service" style="sketch=0;outlineConnect=0;fontColor=#232F3E;gradientColor=none;fillColor=#ED7100;strokeColor=none;dashed=0;verticalLabelPosition=bottom;verticalAlign=top;align=center;html=1;fontSize=12;fontStyle=0;aspect=fixed;pointerEvents=1;shape=mxgraph.aws4.container_2;" parent="1" vertex="1">
          <mxGeometry x="410" y="733.5" width="48" height="31" as="geometry" />
        </mxCell>
        <mxCell id="cy_Bf5KmIXIsXcCeZ6iI-7" value="{name}-frontend-service" style="sketch=0;outlineConnect=0;fontColor=#232F3E;gradientColor=none;fillColor=#ED7100;strokeColor=none;dashed=0;verticalLabelPosition=bottom;verticalAlign=top;align=center;html=1;fontSize=12;fontStyle=0;aspect=fixed;pointerEvents=1;shape=mxgraph.aws4.container_2;" parent="1" vertex="1">
          <mxGeometry x="160" y="733.5" width="48" height="31" as="geometry" />
        </mxCell>
        <mxCell id="cy_Bf5KmIXIsXcCeZ6iI-11" value="{name}-job-task" style="sketch=0;outlineConnect=0;fontColor=#232F3E;gradientColor=none;fillColor=#ED7100;strokeColor=none;dashed=0;verticalLabelPosition=bottom;verticalAlign=top;align=center;html=1;fontSize=12;fontStyle=0;aspect=fixed;pointerEvents=1;shape=mxgraph.aws4.container_2;" parent="1" vertex="1">
          <mxGeometry x="286" y="850" width="48" height="31" as="geometry" />
        </mxCell>
        <mxCell id="cJOK1PBZ7m1B89OkjaX0-2" style="edgeStyle=orthogonalEdgeStyle;rounded=0;orthogonalLoop=1;jettySize=auto;html=1;" edge="1" parent="1" source="cJOK1PBZ7m1B89OkjaX0-1" target="cy_Bf5KmIXIsXcCeZ6iI-11">
          <mxGeometry relative="1" as="geometry">
            <Array as="points">
              <mxPoint x="599" y="866" />
            </Array>
          </mxGeometry>
        </mxCell>
      </root>
    </mxGraphModel>
  </diagram>
</mxfile>
